<svg xmlns="http://www.w3.org/2000/svg" width="80.537" height="56.376" viewBox="0 0 80.537 56.376">
  <path id="cloud" d="M2532.24,1736.576a18.138,18.138,0,0,1,12.081-17.089v-1.031a20.133,20.133,0,0,1,35.247-13.3,16.135,16.135,0,0,1,21.128,15.316v2.516a16.112,16.112,0,0,1,12.081,15.6V1754.7H2532.24v-18.121Zm74.5,2.014a10.071,10.071,0,0,0-7.55-9.753l-4.53-1.17v-7.2a10.065,10.065,0,0,0-10.068-10.068,10.194,10.194,0,0,0-3.132.491l-3.789,1.246-2.629-2.995a14.1,14.1,0,0,0-24.677,9.312v5.3l-4.027,1.422a12.1,12.1,0,0,0-8.053,11.4v12.081h68.455Zm-46.434-12.206,10.067-10.068,2.139-2.139,2.14,2.139,10.066,10.068,2.14,2.138-4.278,4.267-2.14-2.14-4.907-4.908v19.9h-6.041v-19.9l-4.907,4.908-2.14,2.14-4.266-4.267,2.14-2.138Z" transform="translate(-2532.24 -1698.321)" fill="#a7a8ab"/>
</svg>
